<svg width="200" height="200" viewBox="0 0 200 200" fill="none" xmlns="http://www.w3.org/2000/svg">
<g clip-path="url(#clip0_607_16)">
<path d="M174.27 0.00361808H26.1591C26.015 0.00120614 25.871 7.72211e-08 25.7269 0C11.5171 0.00201004 -2.47096e-06 11.5228 0.00160556 25.7322V173.843C0.0486406 188.27 11.7322 199.953 26.1591 200H174.27C188.529 199.721 199.955 188.105 199.998 173.843V25.7322C199.998 11.5228 188.479 0.00361808 174.27 0.00361808Z" fill="black"/>
</g>
<path d="M87.2165 173.16C82.9498 173.16 79.1525 172.307 75.8245 170.6C72.5818 168.979 70.0218 166.547 68.1445 163.304C66.2672 160.061 65.3285 156.179 65.3285 151.656C65.3285 150.547 65.3712 149.395 65.4565 148.2C65.5418 147.091 65.6698 145.939 65.8405 144.744C58.8432 145.171 52.3578 144.36 46.3845 142.312C40.4112 140.264 35.2058 137.235 30.7685 133.224C26.3312 129.128 22.8752 124.221 20.4005 118.504C17.9258 112.701 16.6885 106.344 16.6885 99.432C16.6885 93.1173 17.7552 87.2293 19.8885 81.768C22.0218 76.2213 25.0938 71.3573 29.1045 67.176C33.1152 62.9947 37.9365 59.752 43.5685 57.448C49.2858 55.0587 55.6005 53.864 62.5125 53.864C69.4245 53.864 75.6965 55.016 81.3285 57.32C86.9605 59.624 91.7818 62.8667 95.7925 67.048C99.8032 71.144 102.875 75.88 105.009 81.256C107.227 86.632 108.337 92.4347 108.337 98.664V150.248C108.337 154.856 107.483 158.867 105.777 162.28C104.07 165.779 101.638 168.467 98.4805 170.344C95.4085 172.221 91.6538 173.16 87.2165 173.16ZM86.4485 162.152C89.2645 162.152 91.5685 161.128 93.3605 159.08C95.1525 157.117 96.0485 154.259 96.0485 150.504V120.04C91.6965 122.856 88.2405 125.715 85.6805 128.616C83.1205 131.517 81.2005 134.333 79.9205 137.064C78.7258 139.795 77.9152 142.312 77.4885 144.616C77.1472 146.92 76.9765 148.84 76.9765 150.376C76.9765 152.851 77.4032 154.941 78.2565 156.648C79.1952 158.44 80.3898 159.805 81.8405 160.744C83.2912 161.683 84.8272 162.152 86.4485 162.152ZM62.5125 134.248C63.8778 134.248 65.1578 134.205 66.3525 134.12C67.5472 133.949 68.8272 133.693 70.1925 133.352C71.3872 130.451 73.0512 127.507 75.1845 124.52C77.4032 121.533 80.1765 118.589 83.5045 115.688C86.9178 112.701 91.0992 109.928 96.0485 107.368V98.664C96.0485 93.8 95.1952 89.32 93.4885 85.224C91.8672 81.0427 89.5205 77.4587 86.4485 74.472C83.4618 71.4 79.9205 69.0107 75.8245 67.304C71.7285 65.512 67.2912 64.616 62.5125 64.616C57.6485 64.616 53.1685 65.512 49.0725 67.304C45.0618 69.0107 41.5205 71.4427 38.4485 74.6C35.4618 77.7573 33.1152 81.4693 31.4085 85.736C29.7872 89.9173 28.9765 94.4827 28.9765 99.432C28.9765 104.381 29.7872 108.989 31.4085 113.256C33.1152 117.437 35.4618 121.107 38.4485 124.264C41.5205 127.421 45.0618 129.896 49.0725 131.688C53.1685 133.395 57.6485 134.248 62.5125 134.248ZM147.923 145C142.973 145 138.579 143.848 134.739 141.544C130.984 139.155 128.04 136.04 125.907 132.2C123.773 128.36 122.707 124.179 122.707 119.656C122.707 115.56 123.645 111.72 125.523 108.136C127.485 104.552 130.301 101.736 133.971 99.688C130.387 97.384 127.656 94.5253 125.779 91.112C123.901 87.6987 122.963 84.1147 122.963 80.36C122.963 75.752 124.029 71.5707 126.163 67.816C128.381 64.0613 131.368 61.0747 135.123 58.856C138.877 56.552 143.016 55.4 147.539 55.4H182.995V66.28H148.947C146.301 66.28 143.955 66.92 141.907 68.2C139.859 69.48 138.237 71.1867 137.043 73.32C135.848 75.368 135.251 77.7147 135.251 80.36C135.251 82.8347 135.848 85.096 137.043 87.144C138.323 89.192 140.029 90.856 142.163 92.136C144.296 93.3307 146.643 93.928 149.203 93.928H178.259V104.808H150.099C146.941 104.808 144.211 105.533 141.907 106.984C139.688 108.349 137.939 110.184 136.659 112.488C135.464 114.707 134.867 117.096 134.867 119.656C134.867 122.216 135.464 124.605 136.659 126.824C137.853 129.043 139.56 130.835 141.779 132.2C143.997 133.48 146.6 134.12 149.587 134.12H182.995V145H147.923Z" fill="white"/>
<defs>
<clipPath id="clip0_607_16">
<rect width="200" height="200" fill="white"/>
</clipPath>
</defs>
</svg>
