<svg width="200" height="200" viewBox="0 0 200 200" fill="none" xmlns="http://www.w3.org/2000/svg">
<g clip-path="url(#clip0_608_4)">
<path d="M174.27 0.00361808H26.1591C26.0151 0.00120614 25.871 7.72211e-08 25.7269 0C11.5171 0.00201004 9.56615e-06 11.5228 0.0016176 25.7322V173.843C0.0486526 188.27 11.7322 199.953 26.1591 200H174.27C188.529 199.721 199.955 188.105 199.998 173.843V25.7322C199.998 11.5228 188.479 0.00361808 174.27 0.00361808Z" fill="#000000"/>
</g>
<path d="M87.5155 168.4C83.5155 168.4 79.9555 167.6 76.8355 166C73.7955 164.48 71.3955 162.2 69.6355 159.16C67.8755 156.12 66.9955 152.48 66.9955 148.24C66.9955 147.2 67.0355 146.12 67.1155 145C67.1955 143.96 67.3155 142.88 67.4755 141.76C60.9155 142.16 54.8355 141.4 49.2355 139.48C43.6355 137.56 38.7555 134.72 34.5955 130.96C30.4355 127.12 27.1955 122.52 24.8755 117.16C22.5555 111.72 21.3955 105.76 21.3955 99.28C21.3955 93.36 22.3955 87.84 24.3955 82.72C26.3955 77.52 29.2755 72.96 33.0355 69.04C36.7955 65.12 41.3155 62.08 46.5955 59.92C51.9555 57.68 57.8755 56.56 64.3555 56.56C70.8355 56.56 76.7155 57.64 81.9955 59.8C87.2755 61.96 91.7955 65 95.5555 68.92C99.3155 72.76 102.195 77.2 104.195 82.24C106.275 87.28 107.315 92.72 107.315 98.56V146.92C107.315 151.24 106.515 155 104.915 158.2C103.315 161.48 101.035 164 98.0755 165.76C95.1955 167.52 91.6755 168.4 87.5155 168.4ZM86.7955 158.08C89.4355 158.08 91.5955 157.12 93.2755 155.2C94.9555 153.36 95.7955 150.68 95.7955 147.16V118.6C91.7155 121.24 88.4755 123.92 86.0755 126.64C83.6755 129.36 81.8755 132 80.6755 134.56C79.5555 137.12 78.7955 139.48 78.3955 141.64C78.0755 143.8 77.9155 145.6 77.9155 147.04C77.9155 149.36 78.3155 151.32 79.1155 152.92C79.9955 154.6 81.1155 155.88 82.4755 156.76C83.8355 157.64 85.2755 158.08 86.7955 158.08ZM64.3555 131.92C65.6355 131.92 66.8355 131.88 67.9555 131.8C69.0755 131.64 70.2755 131.4 71.5555 131.08C72.6755 128.36 74.2355 125.6 76.2355 122.8C78.3155 120 80.9155 117.24 84.0355 114.52C87.2355 111.72 91.1555 109.12 95.7955 106.72V98.56C95.7955 94 94.9955 89.8 93.3955 85.96C91.8755 82.04 89.6755 78.68 86.7955 75.88C83.9955 73 80.6755 70.76 76.8355 69.16C72.9955 67.48 68.8355 66.64 64.3555 66.64C59.7955 66.64 55.5955 67.48 51.7555 69.16C47.9955 70.76 44.6755 73.04 41.7955 76C38.9955 78.96 36.7955 82.44 35.1955 86.44C33.6755 90.36 32.9155 94.64 32.9155 99.28C32.9155 103.92 33.6755 108.24 35.1955 112.24C36.7955 116.16 38.9955 119.6 41.7955 122.56C44.6755 125.52 47.9955 127.84 51.7555 129.52C55.5955 131.12 59.7955 131.92 64.3555 131.92ZM144.427 142C139.787 142 135.667 140.92 132.067 138.76C128.547 136.52 125.787 133.6 123.787 130C121.787 126.4 120.787 122.48 120.787 118.24C120.787 114.4 121.667 110.8 123.427 107.44C125.267 104.08 127.907 101.44 131.347 99.52C127.987 97.36 125.427 94.68 123.667 91.48C121.907 88.28 121.027 84.92 121.027 81.4C121.027 77.08 122.027 73.16 124.027 69.64C126.107 66.12 128.907 63.32 132.427 61.24C135.947 59.08 139.827 58 144.067 58H177.307V68.2H145.387C142.907 68.2 140.707 68.8 138.787 70C136.867 71.2 135.347 72.8 134.227 74.8C133.107 76.72 132.547 78.92 132.547 81.4C132.547 83.72 133.107 85.84 134.227 87.76C135.427 89.68 137.027 91.24 139.027 92.44C141.027 93.56 143.227 94.12 145.627 94.12H172.867V104.32H146.467C143.507 104.32 140.947 105 138.787 106.36C136.707 107.64 135.067 109.36 133.867 111.52C132.747 113.6 132.187 115.84 132.187 118.24C132.187 120.64 132.747 122.88 133.867 124.96C134.987 127.04 136.587 128.72 138.667 130C140.747 131.2 143.187 131.8 145.987 131.8H177.307V142H144.427Z" fill="white"/>
<path d="M76.8355 166L77.2918 165.11L77.2827 165.106L76.8355 166ZM69.6355 159.16L70.5009 158.659L70.5009 158.659L69.6355 159.16ZM67.1155 145L66.1184 144.923L66.118 144.929L67.1155 145ZM67.4755 141.76L68.4654 141.901L68.6389 140.687L67.4146 140.762L67.4755 141.76ZM49.2355 139.48L49.5598 138.534L49.5598 138.534L49.2355 139.48ZM34.5955 130.96L33.9172 131.695L33.9249 131.702L34.5955 130.96ZM24.8755 117.16L23.9556 117.552L23.9577 117.557L24.8755 117.16ZM24.3955 82.72L25.3269 83.0839L25.3288 83.079L24.3955 82.72ZM33.0355 69.04L32.3138 68.3478L32.3138 68.3478L33.0355 69.04ZM46.5955 59.92L46.9741 60.8456L46.9811 60.8427L46.5955 59.92ZM81.9955 59.8L82.3741 58.8744L82.3741 58.8744L81.9955 59.8ZM95.5555 68.92L94.8338 69.6123L94.841 69.6196L95.5555 68.92ZM104.195 82.24L103.266 82.6089L103.271 82.6215L104.195 82.24ZM104.915 158.2L104.021 157.753L104.017 157.762L104.915 158.2ZM98.0755 165.76L97.5644 164.9L97.554 164.907L98.0755 165.76ZM93.2755 155.2L92.537 154.526L92.5299 154.534L92.5229 154.541L93.2755 155.2ZM95.7955 118.6H96.7955V116.762L95.2522 117.76L95.7955 118.6ZM86.0755 126.64L86.8253 127.302L86.8253 127.302L86.0755 126.64ZM80.6755 134.56L79.77 134.136L79.7645 134.147L79.7593 134.159L80.6755 134.56ZM78.3955 141.64L77.4122 141.458L77.4089 141.476L77.4063 141.493L78.3955 141.64ZM79.1155 152.92L78.221 153.367L78.2253 153.376L78.2296 153.384L79.1155 152.92ZM82.4755 156.76L81.9322 157.6L81.9322 157.6L82.4755 156.76ZM67.9555 131.8L68.0267 132.797L68.0619 132.795L68.0969 132.79L67.9555 131.8ZM71.5555 131.08L71.798 132.05L72.2879 131.928L72.4801 131.461L71.5555 131.08ZM76.2355 122.8L75.4327 122.204L75.4272 122.211L75.4217 122.219L76.2355 122.8ZM84.0355 114.52L84.6926 115.274L84.694 115.273L84.0355 114.52ZM95.7955 106.72L96.2549 107.608L96.7955 107.329V106.72H95.7955ZM93.3955 85.96L92.4631 86.3215L92.4676 86.3331L92.4724 86.3446L93.3955 85.96ZM86.7955 75.88L86.0785 76.5771L86.0883 76.5872L86.0984 76.597L86.7955 75.88ZM76.8355 69.16L76.4347 70.0762L76.4427 70.0797L76.4509 70.0831L76.8355 69.16ZM51.7555 69.16L52.147 70.0802L52.1563 70.0762L51.7555 69.16ZM41.7955 76L41.0787 75.3026L41.069 75.3128L41.7955 76ZM35.1955 86.44L34.2669 86.0686L34.2631 86.0785L35.1955 86.44ZM35.1955 112.24L34.2607 112.595L34.265 112.607L34.2696 112.618L35.1955 112.24ZM41.7955 122.56L41.0689 123.247L41.0787 123.257L41.7955 122.56ZM51.7555 129.52L51.3475 130.433L51.3591 130.438L51.3709 130.443L51.7555 129.52ZM87.5155 167.4C83.6517 167.4 80.2518 166.628 77.2918 165.11L76.3792 166.89C79.6591 168.572 83.3793 169.4 87.5155 169.4V167.4ZM77.2827 165.106C74.4236 163.676 72.1664 161.536 70.5009 158.659L68.77 159.661C70.6245 162.864 73.1673 165.284 76.3883 166.894L77.2827 165.106ZM70.5009 158.659C68.8457 155.8 67.9955 152.34 67.9955 148.24H65.9955C65.9955 152.62 66.9053 156.44 68.77 159.661L70.5009 158.659ZM67.9955 148.24C67.9955 147.226 68.0345 146.169 68.1129 145.071L66.118 144.929C66.0365 146.071 65.9955 147.174 65.9955 148.24H67.9955ZM68.1125 145.077C68.1907 144.06 68.3082 143.002 68.4654 141.901L66.4855 141.619C66.3227 142.758 66.2002 143.86 66.1184 144.923L68.1125 145.077ZM67.4146 140.762C60.9708 141.155 55.0231 140.407 49.5598 138.534L48.9111 140.426C54.6478 142.393 60.8602 143.165 67.5363 142.758L67.4146 140.762ZM49.5598 138.534C44.0806 136.655 39.3201 133.882 35.266 130.218L33.9249 131.702C38.1909 135.558 43.1904 138.465 48.9111 140.426L49.5598 138.534ZM35.2737 130.225C31.2195 126.483 28.0596 121.999 25.7932 116.763L23.9577 117.557C26.3313 123.041 29.6514 127.757 33.9172 131.695L35.2737 130.225ZM25.7953 116.768C23.5331 111.463 22.3955 105.638 22.3955 99.28H20.3955C20.3955 105.882 21.5779 111.977 23.9556 117.552L25.7953 116.768ZM22.3955 99.28C22.3955 93.4748 23.3756 88.0792 25.3269 83.0838L23.464 82.3561C21.4153 87.6008 20.3955 93.2452 20.3955 99.28H22.3955ZM25.3288 83.079C27.2824 77.9998 30.0915 73.5538 33.7572 69.7322L32.3138 68.3478C28.4594 72.3662 25.5086 77.0402 23.4621 82.361L25.3288 83.079ZM33.7572 69.7322C37.4155 65.9182 41.8169 62.9553 46.9741 60.8455L46.2168 58.9945C40.8141 61.2047 36.1754 64.3218 32.3138 68.3478L33.7572 69.7322ZM46.9811 60.8427C52.2056 58.6593 57.9926 57.56 64.3555 57.56V55.56C57.7584 55.56 51.7054 56.7007 46.2099 58.9973L46.9811 60.8427ZM64.3555 57.56C70.7232 57.56 76.4723 58.6209 81.6168 60.7255L82.3741 58.8744C76.9587 56.6591 70.9478 55.56 64.3555 55.56V57.56ZM81.6168 60.7255C86.7741 62.8353 91.1754 65.7982 94.8338 69.6122L96.2772 68.2278C92.4155 64.2018 87.7769 61.0847 82.3741 58.8744L81.6168 60.7255ZM94.841 69.6196C98.5072 73.3639 101.315 77.6911 103.266 82.6088L105.125 81.8712C103.076 76.7088 100.124 72.1561 96.27 68.2204L94.841 69.6196ZM103.271 82.6215C105.298 87.5321 106.315 92.8415 106.315 98.56H108.315C108.315 92.5985 107.253 87.0279 105.12 81.8585L103.271 82.6215ZM106.315 98.56V146.92H108.315V98.56H106.315ZM106.315 146.92C106.315 151.117 105.539 154.718 104.021 157.753L105.81 158.647C107.492 155.282 108.315 151.363 108.315 146.92H106.315ZM104.017 157.762C102.497 160.877 100.347 163.246 97.5644 164.9L98.5866 166.62C101.724 164.754 104.134 162.083 105.814 158.638L104.017 157.762ZM97.554 164.907C94.8638 166.551 91.5342 167.4 87.5155 167.4V169.4C91.8168 169.4 95.5271 168.489 98.5969 166.613L97.554 164.907ZM86.7955 159.08C89.7124 159.08 92.1507 158.004 94.028 155.859L92.5229 154.541C91.0402 156.236 89.1586 157.08 86.7955 157.08V159.08ZM94.014 155.874C95.9206 153.786 96.7955 150.827 96.7955 147.16H94.7955C94.7955 150.533 93.9904 152.934 92.537 154.526L94.014 155.874ZM96.7955 147.16V118.6H94.7955V147.16H96.7955ZM95.2522 117.76C91.1198 120.434 87.8025 123.171 85.3256 125.978L86.8253 127.302C89.1484 124.669 92.3112 122.046 96.3387 119.44L95.2522 117.76ZM85.3256 125.978C82.8796 128.751 81.0199 131.469 79.77 134.136L81.5809 134.984C82.7311 132.531 84.4714 129.969 86.8253 127.302L85.3256 125.978ZM79.7593 134.159C78.6165 136.771 77.8293 139.206 77.4122 141.458L79.3788 141.822C79.7617 139.754 80.4944 137.469 81.5916 134.961L79.7593 134.159ZM77.4063 141.493C77.0823 143.68 76.9155 145.533 76.9155 147.04H78.9155C78.9155 145.667 79.0686 143.92 79.3847 141.787L77.4063 141.493ZM76.9155 147.04C76.9155 149.471 77.3341 151.593 78.221 153.367L80.0099 152.473C79.2968 151.047 78.9155 149.249 78.9155 147.04H76.9155ZM78.2296 153.384C79.1758 155.19 80.4046 156.611 81.9322 157.6L83.0187 155.92C81.8263 155.149 80.8151 154.01 80.0013 152.456L78.2296 153.384ZM81.9322 157.6C83.4429 158.577 85.0699 159.08 86.7955 159.08V157.08C85.4811 157.08 84.228 156.703 83.0187 155.92L81.9322 157.6ZM64.3555 132.92C65.656 132.92 66.88 132.879 68.0267 132.797L67.8842 130.803C66.7909 130.881 65.6149 130.92 64.3555 130.92V132.92ZM68.0969 132.79C69.2559 132.624 70.49 132.377 71.798 132.05L71.3129 130.11C70.061 130.423 68.895 130.656 67.814 130.81L68.0969 132.79ZM72.4801 131.461C73.5665 128.822 75.0864 126.129 77.0492 123.381L75.4217 122.219C73.3845 125.071 71.7844 127.898 70.6308 130.699L72.4801 131.461ZM77.0382 123.396C79.0684 120.663 81.6169 117.955 84.6926 115.274L83.3783 113.766C80.214 116.525 77.5625 119.337 75.4327 122.204L77.0382 123.396ZM84.694 115.273C87.8214 112.536 91.6709 109.979 96.2549 107.608L95.3361 105.832C90.6401 108.261 86.6496 110.904 83.377 113.767L84.694 115.273ZM96.7955 106.72V98.56H94.7955V106.72H96.7955ZM96.7955 98.56C96.7955 93.8807 95.974 89.5485 94.3185 85.5754L92.4724 86.3446C94.0169 90.0515 94.7955 94.1193 94.7955 98.56H96.7955ZM94.3278 85.5985C92.7583 81.5509 90.4804 78.0679 87.4925 75.163L86.0984 76.597C88.8705 79.2921 90.9926 82.5291 92.4631 86.3215L94.3278 85.5985ZM87.5125 75.1829C84.6147 72.2024 81.1805 69.8871 77.2201 68.2369L76.4509 70.0831C80.1705 71.6329 83.3762 73.7976 86.0785 76.5771L87.5125 75.1829ZM77.2363 68.2438C73.2614 66.5048 68.9638 65.64 64.3555 65.64V67.64C68.7072 67.64 72.7296 68.4552 76.4347 70.0762L77.2363 68.2438ZM64.3555 65.64C59.6698 65.64 55.3318 66.5038 51.3547 68.2438L52.1563 70.0762C55.8591 68.4562 59.9212 67.64 64.3555 67.64V65.64ZM51.3639 68.2398C47.4805 69.8924 44.0503 72.2486 41.0787 75.3026L42.5122 76.6974C45.3007 73.8314 48.5105 71.6276 52.147 70.0801L51.3639 68.2398ZM41.069 75.3128C38.1775 78.3696 35.9111 81.9583 34.267 86.0686L36.1239 86.8114C37.6798 82.9217 39.8135 79.5504 42.5219 76.6872L41.069 75.3128ZM34.2631 86.0785C32.694 90.1251 31.9155 94.5291 31.9155 99.28H33.9155C33.9155 94.7508 34.6569 90.5949 36.1278 86.8015L34.2631 86.0785ZM31.9155 99.28C31.9155 104.031 32.6941 108.473 34.2607 112.595L36.1303 111.885C34.6569 108.007 33.9155 103.809 33.9155 99.28H31.9155ZM34.2696 112.618C35.9145 116.648 38.1807 120.194 41.069 123.247L42.5219 121.873C39.8103 119.006 37.6764 115.672 36.1213 111.862L34.2696 112.618ZM41.0787 123.257C44.0468 126.308 47.4715 128.701 51.3475 130.433L52.1634 128.607C48.5194 126.979 45.3041 124.732 42.5122 121.863L41.0787 123.257ZM51.3709 130.443C55.344 132.099 59.6762 132.92 64.3555 132.92V130.92C59.9147 130.92 55.847 130.141 52.1401 128.597L51.3709 130.443ZM132.067 138.76L131.53 139.604L131.542 139.611L131.553 139.617L132.067 138.76ZM123.787 130L124.662 129.514L123.787 130ZM123.427 107.44L122.55 106.96L122.546 106.968L122.542 106.976L123.427 107.44ZM131.347 99.52L131.835 100.393L133.291 99.5805L131.888 98.6788L131.347 99.52ZM123.667 91.48L124.544 90.9981L124.544 90.9981L123.667 91.48ZM124.027 69.64L123.166 69.1313L123.162 69.1386L123.158 69.146L124.027 69.64ZM132.427 61.24L132.936 62.1009L132.943 62.0967L132.95 62.0923L132.427 61.24ZM177.307 58H178.307V57H177.307V58ZM177.307 68.2V69.2H178.307V68.2H177.307ZM134.227 74.8L135.091 75.3039L135.096 75.2963L135.1 75.2886L134.227 74.8ZM134.227 87.76L133.364 88.2639L133.371 88.2771L133.379 88.29L134.227 87.76ZM139.027 92.44L138.513 93.2975L138.526 93.3052L138.539 93.3125L139.027 92.44ZM172.867 94.12H173.867V93.12H172.867V94.12ZM172.867 104.32V105.32H173.867V104.32H172.867ZM138.787 106.36L139.311 107.212L139.32 107.206L138.787 106.36ZM133.867 111.52L132.993 111.034L132.987 111.046L133.867 111.52ZM133.867 124.96L132.987 125.434L132.987 125.434L133.867 124.96ZM138.667 130L138.143 130.852L138.155 130.859L138.168 130.866L138.667 130ZM177.307 131.8H178.307V130.8H177.307V131.8ZM177.307 142V143H178.307V142H177.307ZM144.427 141C139.949 141 136.01 139.96 132.582 137.903L131.553 139.617C135.324 141.88 139.626 143 144.427 143V141ZM132.604 137.916C129.223 135.765 126.58 132.967 124.662 129.514L122.913 130.486C124.995 134.233 127.872 137.275 131.53 139.604L132.604 137.916ZM124.662 129.514C122.747 126.067 121.787 122.315 121.787 118.24H119.787C119.787 122.645 120.828 126.733 122.913 130.486L124.662 129.514ZM121.787 118.24C121.787 114.56 122.629 111.119 124.313 107.904L122.542 106.976C120.706 110.481 119.787 114.24 119.787 118.24H121.787ZM124.304 107.92C126.051 104.73 128.554 102.224 131.835 100.393L130.86 98.6468C127.261 100.656 124.483 103.43 122.55 106.96L124.304 107.92ZM131.888 98.6788C128.655 96.6002 126.216 94.0389 124.544 90.9981L122.791 91.9619C124.639 95.3211 127.32 98.1198 130.807 100.361L131.888 98.6788ZM124.544 90.9981C122.862 87.94 122.027 84.745 122.027 81.4H120.027C120.027 85.095 120.953 88.62 122.791 91.9619L124.544 90.9981ZM122.027 81.4C122.027 77.2412 122.988 73.4933 124.897 70.134L123.158 69.146C121.067 72.8267 120.027 76.9188 120.027 81.4H122.027ZM124.888 70.1487C126.882 66.774 129.561 64.0951 132.936 62.1009L131.919 60.3791C128.253 62.5449 125.332 65.466 123.166 69.1313L124.888 70.1487ZM132.95 62.0923C136.309 60.0316 140.007 59 144.067 59V57C139.648 57 135.586 58.1284 131.904 60.3877L132.95 62.0923ZM144.067 59H177.307V57H144.067V59ZM176.307 58V68.2H178.307V58H176.307ZM177.307 67.2H145.387V69.2H177.307V67.2ZM145.387 67.2C142.738 67.2 140.351 67.8433 138.257 69.152L139.317 70.848C141.063 69.7567 143.076 69.2 145.387 69.2V67.2ZM138.257 69.152C136.193 70.4422 134.556 72.1666 133.355 74.3114L135.1 75.2886C136.139 73.4334 137.542 71.9577 139.317 70.848L138.257 69.152ZM133.364 74.2961C132.144 76.3862 131.547 78.7639 131.547 81.4H133.547C133.547 79.0761 134.07 77.0538 135.091 75.3039L133.364 74.2961ZM131.547 81.4C131.547 83.889 132.15 86.1841 133.364 88.2639L135.091 87.2561C134.064 85.4959 133.547 83.551 133.547 81.4H131.547ZM133.379 88.29C134.666 90.3481 136.382 92.0187 138.513 93.2975L139.542 91.5825C137.673 90.4613 136.189 89.0119 135.075 87.23L133.379 88.29ZM138.539 93.3125C140.695 94.5201 143.065 95.12 145.627 95.12V93.12C143.39 93.12 141.36 92.5999 139.516 91.5675L138.539 93.3125ZM145.627 95.12H172.867V93.12H145.627V95.12ZM171.867 94.12V104.32H173.867V94.12H171.867ZM172.867 103.32H146.467V105.32H172.867V103.32ZM146.467 103.32C143.349 103.32 140.598 104.038 138.255 105.514L139.32 107.206C141.296 105.962 143.665 105.32 146.467 105.32V103.32ZM138.263 105.508C136.035 106.879 134.276 108.726 132.993 111.034L134.742 112.006C135.859 109.994 137.379 108.401 139.311 107.212L138.263 105.508ZM132.987 111.046C131.787 113.274 131.187 115.677 131.187 118.24H133.187C133.187 116.003 133.708 113.926 134.748 111.994L132.987 111.046ZM131.187 118.24C131.187 120.803 131.787 123.206 132.987 125.434L134.748 124.486C133.708 122.554 133.187 120.477 133.187 118.24H131.187ZM132.987 125.434C134.193 127.675 135.919 129.483 138.143 130.852L139.191 129.148C137.256 127.957 135.781 126.405 134.748 124.486L132.987 125.434ZM138.168 130.866C140.423 132.167 143.041 132.8 145.987 132.8V130.8C143.333 130.8 141.072 130.233 139.167 129.134L138.168 130.866ZM145.987 132.8H177.307V130.8H145.987V132.8ZM176.307 131.8V142H178.307V131.8H176.307ZM177.307 141H144.427V143H177.307V141Z" fill="white"/>
<defs>
<clipPath id="clip0_608_4">
<rect width="200" height="200" fill="white"/>
</clipPath>
</defs>
</svg>
